# xmcd
#
# Track frame offsets:
#	150
#	16965
#	35049
#	52714
#	73723
#	91134
#	114623
#	134103
#	150152
#
# Disc length: 2236 seconds
#
# Revision: 1
# Processed by: cddbd v1.5.1PL0 Copyright (c) Steve Scherf et al.
# Submitted via: audiograbber 1.82.02
#
DISCID=6e08ba09
DTITLE=Ryan Toohey - Space In Your Stride
DYEAR=2003
DGENRE=Blues
TTITLE0=Clown Train Blues
TTITLE1=Woman Stay Away
TTITLE2=Late Night Lovers
TTITLE3=Lonely Stare
TTITLE4=Cotton Ball
TTITLE5=Midnight Stagger
TTITLE6=And The Stars Begin To Fade
TTITLE7=Saturday Night Blues
TTITLE8=Space In Your Stride
EXTD=
EXTT0=
EXTT1=
EXTT2=
EXTT3=
EXTT4=
EXTT5=
EXTT6=
EXTT7=
EXTT8=
PLAYORDER=
